<mxfile host="app.diagrams.net" modified="2021-12-24T10:27:36.385Z" agent="5.0 (Macintosh; Intel Mac OS X 10_15_7) AppleWebKit/605.1.15 (KHTML, like Gecko) Version/15.1 Safari/605.1.15" etag="BOuxl1k78wscEPqYnP9m" version="16.0.3" type="github">
  <diagram id="ADM0EV7wwe9wJuqQsKUm" name="Pagina 1">
    <mxGraphModel dx="1710" dy="1355" grid="0" gridSize="10" guides="1" tooltips="1" connect="1" arrows="1" fold="1" page="0" pageScale="1" pageWidth="827" pageHeight="1169" background="#191414" math="0" shadow="0">
      <root>
        <mxCell id="0" />
        <mxCell id="1" parent="0" />
        <mxCell id="sjmsNhyPRY3k_zEpoKR2-269" style="vsdxID=80;edgeStyle=none;startArrow=none;endArrow=none;startSize=5;endSize=5;spacingTop=-3;spacingBottom=-3;spacingLeft=-3;spacingRight=-3;verticalAlign=middle;html=1;labelBackgroundColor=none;rounded=1;" parent="1" edge="1">
          <mxGeometry relative="1" as="geometry">
            <mxPoint as="offset" />
            <Array as="points">
              <mxPoint x="1588.7500305175781" y="425.5" />
            </Array>
            <mxPoint x="1588.7500305175781" y="425.5" as="sourcePoint" />
            <mxPoint x="1588.7500305175781" y="425.5" as="targetPoint" />
          </mxGeometry>
        </mxCell>
        <mxCell id="sjmsNhyPRY3k_zEpoKR2-341" style="edgeStyle=orthogonalEdgeStyle;rounded=0;orthogonalLoop=1;jettySize=auto;html=1;exitX=0.5;exitY=1;exitDx=0;exitDy=0;fontSize=16;fontColor=#FFFFFF;endArrow=none;endFill=0;strokeColor=#FFFFFF;fillColor=#1DB954;" parent="1" source="sjmsNhyPRY3k_zEpoKR2-309" edge="1">
          <mxGeometry relative="1" as="geometry">
            <mxPoint x="966.6922983022837" y="-158.84614445612988" as="targetPoint" />
            <Array as="points">
              <mxPoint x="904" y="-239" />
              <mxPoint x="904" y="-186" />
              <mxPoint x="967" y="-186" />
            </Array>
          </mxGeometry>
        </mxCell>
        <mxCell id="sjmsNhyPRY3k_zEpoKR2-309" value="&lt;font color=&quot;#ffffff&quot; style=&quot;font-size: 16px&quot;&gt;NonSingle&lt;/font&gt;" style="rounded=0;whiteSpace=wrap;html=1;shadow=0;strokeColor=#FFFFFF;fillColor=#1DB954;gradientColor=none;" parent="1" vertex="1">
          <mxGeometry x="843.75" y="-278" width="120" height="60" as="geometry" />
        </mxCell>
        <mxCell id="sjmsNhyPRY3k_zEpoKR2-317" style="edgeStyle=orthogonalEdgeStyle;rounded=0;orthogonalLoop=1;jettySize=auto;html=1;exitX=1;exitY=0.5;exitDx=0;exitDy=0;entryX=0;entryY=0.5;entryDx=0;entryDy=0;fontSize=16;fontColor=#FFFFFF;endArrow=none;endFill=0;strokeColor=#FFFFFF;" parent="1" source="sjmsNhyPRY3k_zEpoKR2-310" target="sjmsNhyPRY3k_zEpoKR2-314" edge="1">
          <mxGeometry relative="1" as="geometry" />
        </mxCell>
        <mxCell id="sjmsNhyPRY3k_zEpoKR2-418" style="edgeStyle=orthogonalEdgeStyle;rounded=0;orthogonalLoop=1;jettySize=auto;html=1;exitX=0;exitY=0.5;exitDx=0;exitDy=0;entryX=1;entryY=0.5;entryDx=0;entryDy=0;fontSize=16;fontColor=#FFFFFF;endArrow=none;endFill=0;strokeColor=#FFFFFF;fillColor=#1DB954;" parent="1" source="sjmsNhyPRY3k_zEpoKR2-310" target="sjmsNhyPRY3k_zEpoKR2-333" edge="1">
          <mxGeometry relative="1" as="geometry" />
        </mxCell>
        <mxCell id="sjmsNhyPRY3k_zEpoKR2-310" value="Making" style="rhombus;whiteSpace=wrap;html=1;shadow=0;fontSize=16;fontColor=#FFFFFF;strokeColor=#FFFFFF;fillColor=#1DB954;gradientColor=none;" parent="1" vertex="1">
          <mxGeometry x="1169" y="-98" width="109" height="80" as="geometry" />
        </mxCell>
        <mxCell id="sjmsNhyPRY3k_zEpoKR2-313" value="(1,n)" style="text;html=1;align=center;verticalAlign=middle;resizable=0;points=[];autosize=1;strokeColor=none;fillColor=none;fontSize=16;fontColor=#FFFFFF;" parent="1" vertex="1">
          <mxGeometry x="1126" y="-85" width="43" height="23" as="geometry" />
        </mxCell>
        <mxCell id="sjmsNhyPRY3k_zEpoKR2-366" style="edgeStyle=orthogonalEdgeStyle;rounded=0;orthogonalLoop=1;jettySize=auto;html=1;exitX=0.5;exitY=1;exitDx=0;exitDy=0;entryX=1;entryY=0.5;entryDx=0;entryDy=0;fontSize=16;fontColor=#FFFFFF;endArrow=none;endFill=0;strokeColor=#FFFFFF;fillColor=#1DB954;" parent="1" source="sjmsNhyPRY3k_zEpoKR2-314" target="sjmsNhyPRY3k_zEpoKR2-361" edge="1">
          <mxGeometry relative="1" as="geometry">
            <Array as="points">
              <mxPoint x="1474" y="324" />
            </Array>
          </mxGeometry>
        </mxCell>
        <mxCell id="sjmsNhyPRY3k_zEpoKR2-314" value="&lt;font color=&quot;#ffffff&quot; style=&quot;font-size: 16px&quot;&gt;Artist&lt;/font&gt;" style="rounded=0;whiteSpace=wrap;html=1;shadow=0;strokeColor=#FFFFFF;fillColor=#1DB954;gradientColor=none;" parent="1" vertex="1">
          <mxGeometry x="1414.25" y="-88" width="120" height="60" as="geometry" />
        </mxCell>
        <mxCell id="sjmsNhyPRY3k_zEpoKR2-324" style="edgeStyle=orthogonalEdgeStyle;rounded=0;orthogonalLoop=1;jettySize=auto;html=1;exitX=0;exitY=0.5;exitDx=0;exitDy=0;fontSize=16;fontColor=#FFFFFF;endArrow=none;endFill=0;strokeColor=#FFFFFF;fillColor=#1DB954;" parent="1" source="sjmsNhyPRY3k_zEpoKR2-315" edge="1">
          <mxGeometry relative="1" as="geometry">
            <mxPoint x="1624" y="-55" as="targetPoint" />
            <Array as="points">
              <mxPoint x="1634" y="2" />
              <mxPoint x="1634" y="-55" />
            </Array>
          </mxGeometry>
        </mxCell>
        <mxCell id="sjmsNhyPRY3k_zEpoKR2-327" style="edgeStyle=orthogonalEdgeStyle;rounded=0;orthogonalLoop=1;jettySize=auto;html=1;exitX=1;exitY=0.5;exitDx=0;exitDy=0;entryX=0.5;entryY=1;entryDx=0;entryDy=0;fontSize=16;fontColor=#FFFFFF;endArrow=none;endFill=0;strokeColor=#FFFFFF;fillColor=#1DB954;" parent="1" source="sjmsNhyPRY3k_zEpoKR2-315" target="sjmsNhyPRY3k_zEpoKR2-326" edge="1">
          <mxGeometry relative="1" as="geometry">
            <Array as="points">
              <mxPoint x="1951" y="2" />
            </Array>
          </mxGeometry>
        </mxCell>
        <mxCell id="sjmsNhyPRY3k_zEpoKR2-315" value="&lt;font color=&quot;#ffffff&quot; style=&quot;font-size: 16px&quot;&gt;Band&lt;/font&gt;" style="rounded=0;whiteSpace=wrap;html=1;shadow=0;strokeColor=#FFFFFF;fillColor=#1DB954;gradientColor=none;" parent="1" vertex="1">
          <mxGeometry x="1715.75" y="-40" width="120" height="60" as="geometry" />
        </mxCell>
        <mxCell id="sjmsNhyPRY3k_zEpoKR2-323" style="edgeStyle=orthogonalEdgeStyle;rounded=0;orthogonalLoop=1;jettySize=auto;html=1;exitX=0;exitY=0.5;exitDx=0;exitDy=0;fontSize=16;fontColor=#FFFFFF;endArrow=none;endFill=0;strokeColor=#FFFFFF;fillColor=#1DB954;" parent="1" source="sjmsNhyPRY3k_zEpoKR2-316" edge="1">
          <mxGeometry relative="1" as="geometry">
            <mxPoint x="1624" y="-61" as="targetPoint" />
            <Array as="points">
              <mxPoint x="1633" y="-118" />
              <mxPoint x="1633" y="-61" />
            </Array>
          </mxGeometry>
        </mxCell>
        <mxCell id="sjmsNhyPRY3k_zEpoKR2-328" style="edgeStyle=orthogonalEdgeStyle;rounded=0;orthogonalLoop=1;jettySize=auto;html=1;exitX=1;exitY=0.5;exitDx=0;exitDy=0;entryX=0.5;entryY=0;entryDx=0;entryDy=0;fontSize=16;fontColor=#FFFFFF;endArrow=none;endFill=0;strokeColor=#FFFFFF;fillColor=#1DB954;" parent="1" source="sjmsNhyPRY3k_zEpoKR2-316" target="sjmsNhyPRY3k_zEpoKR2-326" edge="1">
          <mxGeometry relative="1" as="geometry" />
        </mxCell>
        <mxCell id="sjmsNhyPRY3k_zEpoKR2-316" value="&lt;font color=&quot;#ffffff&quot; style=&quot;font-size: 16px&quot;&gt;Soloist&lt;/font&gt;" style="rounded=0;whiteSpace=wrap;html=1;shadow=0;strokeColor=#FFFFFF;fillColor=#1DB954;gradientColor=none;" parent="1" vertex="1">
          <mxGeometry x="1715.75" y="-148" width="120" height="60" as="geometry" />
        </mxCell>
        <mxCell id="sjmsNhyPRY3k_zEpoKR2-319" value="(0,n)" style="text;html=1;align=center;verticalAlign=middle;resizable=0;points=[];autosize=1;strokeColor=none;fillColor=none;fontSize=16;fontColor=#FFFFFF;" parent="1" vertex="1">
          <mxGeometry x="1275" y="-85" width="43" height="23" as="geometry" />
        </mxCell>
        <mxCell id="sjmsNhyPRY3k_zEpoKR2-320" value="" style="shape=flexArrow;endArrow=classic;html=1;rounded=0;fontSize=16;fontColor=#FFFFFF;strokeColor=#FFFFFF;fillColor=#1DB954;" parent="1" edge="1">
          <mxGeometry width="50" height="50" relative="1" as="geometry">
            <mxPoint x="1624" y="-58.19" as="sourcePoint" />
            <mxPoint x="1534.25" y="-57.81" as="targetPoint" />
            <Array as="points">
              <mxPoint x="1572" y="-58" />
            </Array>
          </mxGeometry>
        </mxCell>
        <mxCell id="sjmsNhyPRY3k_zEpoKR2-326" value="ArtistBelongsTo" style="rhombus;whiteSpace=wrap;html=1;shadow=0;fontSize=16;fontColor=#FFFFFF;strokeColor=#FFFFFF;fillColor=#1DB954;gradientColor=none;" parent="1" vertex="1">
          <mxGeometry x="1874" y="-98" width="154.5" height="88" as="geometry" />
        </mxCell>
        <mxCell id="sjmsNhyPRY3k_zEpoKR2-329" value="(0,n)" style="text;html=1;align=center;verticalAlign=middle;resizable=0;points=[];autosize=1;strokeColor=none;fillColor=none;fontSize=16;fontColor=#FFFFFF;" parent="1" vertex="1">
          <mxGeometry x="1925.75" y="-142" width="43" height="23" as="geometry" />
        </mxCell>
        <mxCell id="sjmsNhyPRY3k_zEpoKR2-330" value="(0,n)" style="text;html=1;align=center;verticalAlign=middle;resizable=0;points=[];autosize=1;strokeColor=none;fillColor=none;fontSize=16;fontColor=#FFFFFF;" parent="1" vertex="1">
          <mxGeometry x="1925.75" y="2" width="43" height="23" as="geometry" />
        </mxCell>
        <mxCell id="sjmsNhyPRY3k_zEpoKR2-346" style="edgeStyle=orthogonalEdgeStyle;rounded=0;orthogonalLoop=1;jettySize=auto;html=1;exitX=0.5;exitY=1;exitDx=0;exitDy=0;entryX=0.5;entryY=0;entryDx=0;entryDy=0;fontSize=16;fontColor=#FFFFFF;endArrow=none;endFill=0;strokeColor=#FFFFFF;fillColor=#1DB954;" parent="1" source="sjmsNhyPRY3k_zEpoKR2-333" target="sjmsNhyPRY3k_zEpoKR2-345" edge="1">
          <mxGeometry relative="1" as="geometry" />
        </mxCell>
        <mxCell id="sjmsNhyPRY3k_zEpoKR2-394" style="edgeStyle=orthogonalEdgeStyle;rounded=0;orthogonalLoop=1;jettySize=auto;html=1;exitX=0;exitY=0.5;exitDx=0;exitDy=0;entryX=0.5;entryY=0;entryDx=0;entryDy=0;fontSize=16;fontColor=#FFFFFF;endArrow=none;endFill=0;strokeColor=#FFFFFF;fillColor=#1DB954;" parent="1" source="sjmsNhyPRY3k_zEpoKR2-333" target="sjmsNhyPRY3k_zEpoKR2-391" edge="1">
          <mxGeometry relative="1" as="geometry" />
        </mxCell>
        <mxCell id="sjmsNhyPRY3k_zEpoKR2-333" value="&lt;font color=&quot;#ffffff&quot; style=&quot;font-size: 16px&quot;&gt;Album&lt;/font&gt;" style="rounded=0;whiteSpace=wrap;html=1;shadow=0;strokeColor=#FFFFFF;fillColor=#1DB954;gradientColor=none;" parent="1" vertex="1">
          <mxGeometry x="909" y="-88" width="120" height="60" as="geometry" />
        </mxCell>
        <mxCell id="sjmsNhyPRY3k_zEpoKR2-339" value="" style="shape=flexArrow;endArrow=classic;html=1;rounded=0;fontSize=16;fontColor=#FFFFFF;strokeColor=#FFFFFF;fillColor=#1DB954;entryX=0.5;entryY=0;entryDx=0;entryDy=0;" parent="1" target="sjmsNhyPRY3k_zEpoKR2-333" edge="1">
          <mxGeometry width="50" height="50" relative="1" as="geometry">
            <mxPoint x="969" y="-161" as="sourcePoint" />
            <mxPoint x="922" y="-127.61999999999995" as="targetPoint" />
            <Array as="points">
              <mxPoint x="969" y="-133" />
            </Array>
          </mxGeometry>
        </mxCell>
        <mxCell id="sjmsNhyPRY3k_zEpoKR2-343" style="edgeStyle=orthogonalEdgeStyle;rounded=0;orthogonalLoop=1;jettySize=auto;html=1;exitX=0.5;exitY=1;exitDx=0;exitDy=0;fontSize=16;fontColor=#FFFFFF;endArrow=none;endFill=0;strokeColor=#FFFFFF;fillColor=#1DB954;" parent="1" source="sjmsNhyPRY3k_zEpoKR2-340" edge="1">
          <mxGeometry relative="1" as="geometry">
            <mxPoint x="971.484822591146" y="-159.9696932705965" as="targetPoint" />
            <Array as="points">
              <mxPoint x="1040" y="-186" />
              <mxPoint x="971" y="-186" />
            </Array>
          </mxGeometry>
        </mxCell>
        <mxCell id="sjmsNhyPRY3k_zEpoKR2-340" value="&lt;font color=&quot;#ffffff&quot; style=&quot;font-size: 16px&quot;&gt;Single&lt;/font&gt;" style="rounded=0;whiteSpace=wrap;html=1;shadow=0;strokeColor=#FFFFFF;fillColor=#1DB954;gradientColor=none;" parent="1" vertex="1">
          <mxGeometry x="979.75" y="-278" width="120" height="60" as="geometry" />
        </mxCell>
        <mxCell id="sjmsNhyPRY3k_zEpoKR2-344" value="&lt;font color=&quot;#ffffff&quot; style=&quot;font-size: 16px&quot;&gt;Revenue&lt;/font&gt;" style="rounded=0;whiteSpace=wrap;html=1;shadow=0;strokeColor=#FFFFFF;fillColor=#1DB954;gradientColor=none;" parent="1" vertex="1">
          <mxGeometry x="1715.75" y="169" width="120" height="60" as="geometry" />
        </mxCell>
        <mxCell id="sjmsNhyPRY3k_zEpoKR2-354" style="edgeStyle=orthogonalEdgeStyle;rounded=0;orthogonalLoop=1;jettySize=auto;html=1;exitX=0.5;exitY=1;exitDx=0;exitDy=0;entryX=0.5;entryY=0;entryDx=0;entryDy=0;fontSize=16;fontColor=#FFFFFF;endArrow=none;endFill=0;strokeColor=#FFFFFF;fillColor=#1DB954;" parent="1" source="sjmsNhyPRY3k_zEpoKR2-345" target="sjmsNhyPRY3k_zEpoKR2-349" edge="1">
          <mxGeometry relative="1" as="geometry" />
        </mxCell>
        <mxCell id="sjmsNhyPRY3k_zEpoKR2-345" value="TrackBelongsTo" style="rhombus;whiteSpace=wrap;html=1;shadow=0;fontSize=16;fontColor=#FFFFFF;strokeColor=#FFFFFF;fillColor=#1DB954;gradientColor=none;" parent="1" vertex="1">
          <mxGeometry x="897.1899999999999" y="110" width="143.62" height="117" as="geometry" />
        </mxCell>
        <mxCell id="sjmsNhyPRY3k_zEpoKR2-347" value="(1,n)" style="text;html=1;align=center;verticalAlign=middle;resizable=0;points=[];autosize=1;strokeColor=none;fillColor=none;fontSize=16;fontColor=#FFFFFF;" parent="1" vertex="1">
          <mxGeometry x="973.75" y="87" width="43" height="23" as="geometry" />
        </mxCell>
        <mxCell id="sjmsNhyPRY3k_zEpoKR2-348" value="(1,n)" style="text;html=1;align=center;verticalAlign=middle;resizable=0;points=[];autosize=1;strokeColor=none;fillColor=none;fontSize=16;fontColor=#FFFFFF;" parent="1" vertex="1">
          <mxGeometry x="972.75" y="227" width="43" height="23" as="geometry" />
        </mxCell>
        <mxCell id="sjmsNhyPRY3k_zEpoKR2-362" style="edgeStyle=orthogonalEdgeStyle;rounded=0;orthogonalLoop=1;jettySize=auto;html=1;exitX=1;exitY=0.5;exitDx=0;exitDy=0;entryX=0;entryY=0.5;entryDx=0;entryDy=0;fontSize=16;fontColor=#FFFFFF;endArrow=none;endFill=0;strokeColor=#FFFFFF;fillColor=#1DB954;" parent="1" source="sjmsNhyPRY3k_zEpoKR2-349" target="sjmsNhyPRY3k_zEpoKR2-361" edge="1">
          <mxGeometry relative="1" as="geometry" />
        </mxCell>
        <mxCell id="sjmsNhyPRY3k_zEpoKR2-349" value="&lt;font color=&quot;#ffffff&quot; style=&quot;font-size: 16px&quot;&gt;Track&lt;/font&gt;" style="rounded=0;whiteSpace=wrap;html=1;shadow=0;strokeColor=#FFFFFF;fillColor=#1DB954;gradientColor=none;" parent="1" vertex="1">
          <mxGeometry x="909" y="294.5" width="120" height="60" as="geometry" />
        </mxCell>
        <mxCell id="sjmsNhyPRY3k_zEpoKR2-356" style="edgeStyle=orthogonalEdgeStyle;rounded=0;orthogonalLoop=1;jettySize=auto;html=1;exitX=1;exitY=0.5;exitDx=0;exitDy=0;entryX=0.5;entryY=1;entryDx=0;entryDy=0;fontSize=16;fontColor=#FFFFFF;endArrow=none;endFill=0;strokeColor=#FFFFFF;fillColor=#1DB954;" parent="1" source="sjmsNhyPRY3k_zEpoKR2-355" target="sjmsNhyPRY3k_zEpoKR2-349" edge="1">
          <mxGeometry relative="1" as="geometry" />
        </mxCell>
        <mxCell id="sjmsNhyPRY3k_zEpoKR2-357" style="edgeStyle=orthogonalEdgeStyle;rounded=0;orthogonalLoop=1;jettySize=auto;html=1;exitX=0.5;exitY=0;exitDx=0;exitDy=0;entryX=0;entryY=0.5;entryDx=0;entryDy=0;fontSize=16;fontColor=#FFFFFF;endArrow=none;endFill=0;strokeColor=#FFFFFF;fillColor=#1DB954;" parent="1" source="sjmsNhyPRY3k_zEpoKR2-355" target="sjmsNhyPRY3k_zEpoKR2-349" edge="1">
          <mxGeometry relative="1" as="geometry" />
        </mxCell>
        <mxCell id="sjmsNhyPRY3k_zEpoKR2-355" value="Similarity" style="rhombus;whiteSpace=wrap;html=1;shadow=0;fontSize=16;fontColor=#FFFFFF;strokeColor=#FFFFFF;fillColor=#1DB954;gradientColor=none;" parent="1" vertex="1">
          <mxGeometry x="751.5" y="359" width="139.25" height="80" as="geometry" />
        </mxCell>
        <mxCell id="sjmsNhyPRY3k_zEpoKR2-358" value="(0,n)" style="text;html=1;align=center;verticalAlign=middle;resizable=0;points=[];autosize=1;strokeColor=none;fillColor=none;fontSize=16;fontColor=#FFFFFF;" parent="1" vertex="1">
          <mxGeometry x="884.25" y="400.5" width="43" height="23" as="geometry" />
        </mxCell>
        <mxCell id="sjmsNhyPRY3k_zEpoKR2-360" value="(0,n)" style="text;html=1;align=center;verticalAlign=middle;resizable=0;points=[];autosize=1;strokeColor=none;fillColor=none;fontSize=16;fontColor=#FFFFFF;" parent="1" vertex="1">
          <mxGeometry x="777" y="337" width="43" height="23" as="geometry" />
        </mxCell>
        <mxCell id="sjmsNhyPRY3k_zEpoKR2-361" value="Features" style="rhombus;whiteSpace=wrap;html=1;shadow=0;fontSize=16;fontColor=#FFFFFF;strokeColor=#FFFFFF;fillColor=#1DB954;gradientColor=none;" parent="1" vertex="1">
          <mxGeometry x="1275" y="284.5" width="139.25" height="80" as="geometry" />
        </mxCell>
        <mxCell id="sjmsNhyPRY3k_zEpoKR2-367" value="(0,n)" style="text;html=1;align=center;verticalAlign=middle;resizable=0;points=[];autosize=1;strokeColor=none;fillColor=none;fontSize=16;fontColor=#FFFFFF;" parent="1" vertex="1">
          <mxGeometry x="1233.5" y="300" width="43" height="23" as="geometry" />
        </mxCell>
        <mxCell id="sjmsNhyPRY3k_zEpoKR2-368" value="(0,n)" style="text;html=1;align=center;verticalAlign=middle;resizable=0;points=[];autosize=1;strokeColor=none;fillColor=none;fontSize=16;fontColor=#FFFFFF;" parent="1" vertex="1">
          <mxGeometry x="1405.5" y="300" width="43" height="23" as="geometry" />
        </mxCell>
        <mxCell id="sjmsNhyPRY3k_zEpoKR2-370" style="edgeStyle=orthogonalEdgeStyle;rounded=0;orthogonalLoop=1;jettySize=auto;html=1;exitX=1;exitY=0.5;exitDx=0;exitDy=0;fontSize=16;fontColor=#FFFFFF;endArrow=none;endFill=0;strokeColor=#FFFFFF;fillColor=#1DB954;" parent="1" source="sjmsNhyPRY3k_zEpoKR2-369" edge="1">
          <mxGeometry relative="1" as="geometry">
            <mxPoint x="820.666707356771" y="325.3333333333335" as="targetPoint" />
          </mxGeometry>
        </mxCell>
        <mxCell id="sjmsNhyPRY3k_zEpoKR2-369" value="TrackBelongsToCategory" style="rhombus;whiteSpace=wrap;html=1;shadow=0;fontSize=16;fontColor=#FFFFFF;strokeColor=#FFFFFF;fillColor=#1DB954;gradientColor=none;" parent="1" vertex="1">
          <mxGeometry x="411" y="284.5" width="268" height="80.5" as="geometry" />
        </mxCell>
        <mxCell id="sjmsNhyPRY3k_zEpoKR2-373" style="edgeStyle=orthogonalEdgeStyle;rounded=0;orthogonalLoop=1;jettySize=auto;html=1;exitX=1;exitY=0.5;exitDx=0;exitDy=0;entryX=0;entryY=0.5;entryDx=0;entryDy=0;fontSize=16;fontColor=#FFFFFF;endArrow=none;endFill=0;strokeColor=#FFFFFF;fillColor=#1DB954;" parent="1" source="sjmsNhyPRY3k_zEpoKR2-371" target="sjmsNhyPRY3k_zEpoKR2-369" edge="1">
          <mxGeometry relative="1" as="geometry" />
        </mxCell>
        <mxCell id="sjmsNhyPRY3k_zEpoKR2-371" value="&lt;font color=&quot;#ffffff&quot; style=&quot;font-size: 16px&quot;&gt;Category&lt;/font&gt;" style="rounded=0;whiteSpace=wrap;html=1;shadow=0;strokeColor=#FFFFFF;fillColor=#1DB954;gradientColor=none;" parent="1" vertex="1">
          <mxGeometry x="183" y="294.5" width="120" height="60" as="geometry" />
        </mxCell>
        <mxCell id="sjmsNhyPRY3k_zEpoKR2-374" value="(0,n)" style="text;html=1;align=center;verticalAlign=middle;resizable=0;points=[];autosize=1;strokeColor=none;fillColor=none;fontSize=16;fontColor=#FFFFFF;" parent="1" vertex="1">
          <mxGeometry x="376" y="301" width="43" height="23" as="geometry" />
        </mxCell>
        <mxCell id="sjmsNhyPRY3k_zEpoKR2-376" value="(0,n)" style="text;html=1;align=center;verticalAlign=middle;resizable=0;points=[];autosize=1;strokeColor=none;fillColor=none;fontSize=16;fontColor=#FFFFFF;" parent="1" vertex="1">
          <mxGeometry x="673" y="301" width="43" height="23" as="geometry" />
        </mxCell>
        <mxCell id="sjmsNhyPRY3k_zEpoKR2-381" style="edgeStyle=orthogonalEdgeStyle;rounded=0;orthogonalLoop=1;jettySize=auto;html=1;exitX=1;exitY=0.5;exitDx=0;exitDy=0;fontSize=16;fontColor=#FFFFFF;endArrow=none;endFill=0;strokeColor=#FFFFFF;fillColor=#1DB954;" parent="1" source="sjmsNhyPRY3k_zEpoKR2-377" edge="1">
          <mxGeometry relative="1" as="geometry">
            <mxPoint x="821.2857666015625" y="326.1429050990514" as="targetPoint" />
          </mxGeometry>
        </mxCell>
        <mxCell id="sjmsNhyPRY3k_zEpoKR2-377" value="TrackBelongsToPlaylist" style="rhombus;whiteSpace=wrap;html=1;shadow=0;fontSize=16;fontColor=#FFFFFF;strokeColor=#FFFFFF;fillColor=#1DB954;gradientColor=none;" parent="1" vertex="1">
          <mxGeometry x="411" y="122" width="242" height="80" as="geometry" />
        </mxCell>
        <mxCell id="sjmsNhyPRY3k_zEpoKR2-384" style="edgeStyle=orthogonalEdgeStyle;rounded=0;orthogonalLoop=1;jettySize=auto;html=1;exitX=1;exitY=0.5;exitDx=0;exitDy=0;entryX=0;entryY=0.5;entryDx=0;entryDy=0;fontSize=16;fontColor=#FFFFFF;endArrow=none;endFill=0;strokeColor=#FFFFFF;fillColor=#1DB954;" parent="1" source="sjmsNhyPRY3k_zEpoKR2-382" target="sjmsNhyPRY3k_zEpoKR2-377" edge="1">
          <mxGeometry relative="1" as="geometry" />
        </mxCell>
        <mxCell id="sjmsNhyPRY3k_zEpoKR2-395" style="edgeStyle=orthogonalEdgeStyle;rounded=0;orthogonalLoop=1;jettySize=auto;html=1;exitX=0;exitY=0.5;exitDx=0;exitDy=0;entryX=0.5;entryY=0;entryDx=0;entryDy=0;fontSize=16;fontColor=#FFFFFF;endArrow=none;endFill=0;strokeColor=#FFFFFF;fillColor=#1DB954;" parent="1" source="sjmsNhyPRY3k_zEpoKR2-382" target="sjmsNhyPRY3k_zEpoKR2-392" edge="1">
          <mxGeometry relative="1" as="geometry" />
        </mxCell>
        <mxCell id="sjmsNhyPRY3k_zEpoKR2-382" value="&lt;font color=&quot;#ffffff&quot; style=&quot;font-size: 16px&quot;&gt;Playlist&lt;/font&gt;" style="rounded=0;whiteSpace=wrap;html=1;shadow=0;strokeColor=#FFFFFF;fillColor=#1DB954;gradientColor=none;" parent="1" vertex="1">
          <mxGeometry x="-3" y="132" width="120" height="60" as="geometry" />
        </mxCell>
        <mxCell id="sjmsNhyPRY3k_zEpoKR2-385" value="(0,n)" style="text;html=1;align=center;verticalAlign=middle;resizable=0;points=[];autosize=1;strokeColor=none;fillColor=none;fontSize=16;fontColor=#FFFFFF;" parent="1" vertex="1">
          <mxGeometry x="372" y="138.5" width="43" height="23" as="geometry" />
        </mxCell>
        <mxCell id="sjmsNhyPRY3k_zEpoKR2-388" value="(0,n)" style="text;html=1;align=center;verticalAlign=middle;resizable=0;points=[];autosize=1;strokeColor=none;fillColor=none;fontSize=16;fontColor=#FFFFFF;" parent="1" vertex="1">
          <mxGeometry x="646" y="137.5" width="43" height="23" as="geometry" />
        </mxCell>
        <mxCell id="sjmsNhyPRY3k_zEpoKR2-389" value="" style="shape=flexArrow;endArrow=classic;html=1;rounded=0;fontSize=16;fontColor=#FFFFFF;strokeColor=#FFFFFF;fillColor=#191414;entryX=0.5;entryY=0;entryDx=0;entryDy=0;" parent="1" edge="1">
          <mxGeometry width="50" height="50" relative="1" as="geometry">
            <mxPoint x="56.16999999999996" y="194" as="sourcePoint" />
            <mxPoint x="56.16999999999996" y="267" as="targetPoint" />
            <Array as="points">
              <mxPoint x="56.16999999999996" y="222" />
            </Array>
          </mxGeometry>
        </mxCell>
        <mxCell id="sjmsNhyPRY3k_zEpoKR2-396" style="edgeStyle=orthogonalEdgeStyle;rounded=0;orthogonalLoop=1;jettySize=auto;html=1;exitX=0.5;exitY=1;exitDx=0;exitDy=0;entryX=0.5;entryY=0;entryDx=0;entryDy=0;fontSize=16;fontColor=#FFFFFF;endArrow=none;endFill=0;strokeColor=#FFFFFF;fillColor=#1DB954;" parent="1" source="sjmsNhyPRY3k_zEpoKR2-390" target="sjmsNhyPRY3k_zEpoKR2-393" edge="1">
          <mxGeometry relative="1" as="geometry" />
        </mxCell>
        <mxCell id="sjmsNhyPRY3k_zEpoKR2-390" value="&lt;font color=&quot;#ffffff&quot; style=&quot;font-size: 16px&quot;&gt;DailySuggestion&lt;/font&gt;" style="rounded=0;whiteSpace=wrap;html=1;shadow=0;strokeColor=#FFFFFF;fillColor=#1DB954;gradientColor=none;" parent="1" vertex="1">
          <mxGeometry x="-10" y="267" width="134" height="67" as="geometry" />
        </mxCell>
        <mxCell id="sjmsNhyPRY3k_zEpoKR2-402" style="edgeStyle=orthogonalEdgeStyle;rounded=0;orthogonalLoop=1;jettySize=auto;html=1;exitX=0.5;exitY=1;exitDx=0;exitDy=0;entryX=0;entryY=0.5;entryDx=0;entryDy=0;fontSize=16;fontColor=#FFFFFF;endArrow=none;endFill=0;strokeColor=#FFFFFF;fillColor=#1DB954;" parent="1" source="sjmsNhyPRY3k_zEpoKR2-391" target="sjmsNhyPRY3k_zEpoKR2-401" edge="1">
          <mxGeometry relative="1" as="geometry" />
        </mxCell>
        <mxCell id="sjmsNhyPRY3k_zEpoKR2-391" value="LikesAlbum" style="rhombus;whiteSpace=wrap;html=1;shadow=0;fontSize=16;fontColor=#FFFFFF;strokeColor=#FFFFFF;fillColor=#1DB954;gradientColor=none;" parent="1" vertex="1">
          <mxGeometry x="-373.0000000000001" y="526" width="139.25" height="80" as="geometry" />
        </mxCell>
        <mxCell id="sjmsNhyPRY3k_zEpoKR2-404" style="edgeStyle=orthogonalEdgeStyle;rounded=0;orthogonalLoop=1;jettySize=auto;html=1;exitX=0.5;exitY=1;exitDx=0;exitDy=0;fontSize=16;fontColor=#FFFFFF;endArrow=none;endFill=0;strokeColor=#FFFFFF;fillColor=#1DB954;" parent="1" source="sjmsNhyPRY3k_zEpoKR2-392" edge="1">
          <mxGeometry relative="1" as="geometry">
            <mxPoint x="-123.11111111111109" y="727.4444647894966" as="targetPoint" />
          </mxGeometry>
        </mxCell>
        <mxCell id="sjmsNhyPRY3k_zEpoKR2-392" value="LikesPlaylist" style="rhombus;whiteSpace=wrap;html=1;shadow=0;fontSize=16;fontColor=#FFFFFF;strokeColor=#FFFFFF;fillColor=#1DB954;gradientColor=none;" parent="1" vertex="1">
          <mxGeometry x="-193" y="526" width="139.25" height="80" as="geometry" />
        </mxCell>
        <mxCell id="sjmsNhyPRY3k_zEpoKR2-405" style="edgeStyle=orthogonalEdgeStyle;rounded=0;orthogonalLoop=1;jettySize=auto;html=1;exitX=0.5;exitY=1;exitDx=0;exitDy=0;fontSize=16;fontColor=#FFFFFF;endArrow=none;endFill=0;strokeColor=#FFFFFF;fillColor=#1DB954;" parent="1" source="sjmsNhyPRY3k_zEpoKR2-393" edge="1">
          <mxGeometry relative="1" as="geometry">
            <mxPoint x="56.888888888888914" y="727.0000271267361" as="targetPoint" />
          </mxGeometry>
        </mxCell>
        <mxCell id="sjmsNhyPRY3k_zEpoKR2-393" value="SuggestedPlaylist" style="rhombus;whiteSpace=wrap;html=1;shadow=0;fontSize=16;fontColor=#FFFFFF;strokeColor=#FFFFFF;fillColor=#1DB954;gradientColor=none;" parent="1" vertex="1">
          <mxGeometry x="-25.31" y="526" width="164.62" height="92" as="geometry" />
        </mxCell>
        <mxCell id="sjmsNhyPRY3k_zEpoKR2-397" value="(0,n)" style="text;html=1;align=center;verticalAlign=middle;resizable=0;points=[];autosize=1;strokeColor=none;fillColor=none;fontSize=16;fontColor=#FFFFFF;" parent="1" vertex="1">
          <mxGeometry x="-342" y="503" width="43" height="23" as="geometry" />
        </mxCell>
        <mxCell id="sjmsNhyPRY3k_zEpoKR2-399" value="(0,n)" style="text;html=1;align=center;verticalAlign=middle;resizable=0;points=[];autosize=1;strokeColor=none;fillColor=none;fontSize=16;fontColor=#FFFFFF;" parent="1" vertex="1">
          <mxGeometry x="-166" y="503" width="43" height="23" as="geometry" />
        </mxCell>
        <mxCell id="sjmsNhyPRY3k_zEpoKR2-400" value="(1,1)" style="text;html=1;align=center;verticalAlign=middle;resizable=0;points=[];autosize=1;strokeColor=none;fillColor=none;fontSize=16;fontColor=#FFFFFF;" parent="1" vertex="1">
          <mxGeometry x="13" y="503" width="43" height="23" as="geometry" />
        </mxCell>
        <mxCell id="sjmsNhyPRY3k_zEpoKR2-413" style="edgeStyle=orthogonalEdgeStyle;rounded=0;orthogonalLoop=1;jettySize=auto;html=1;exitX=1;exitY=0.5;exitDx=0;exitDy=0;fontSize=16;fontColor=#FFFFFF;endArrow=none;endFill=0;strokeColor=#FFFFFF;fillColor=#1DB954;" parent="1" source="sjmsNhyPRY3k_zEpoKR2-401" target="sjmsNhyPRY3k_zEpoKR2-409" edge="1">
          <mxGeometry relative="1" as="geometry" />
        </mxCell>
        <mxCell id="sjmsNhyPRY3k_zEpoKR2-432" style="edgeStyle=orthogonalEdgeStyle;rounded=0;orthogonalLoop=1;jettySize=auto;html=1;exitX=0.5;exitY=0;exitDx=0;exitDy=0;entryX=0.5;entryY=1;entryDx=0;entryDy=0;fontSize=16;fontColor=#FFFFFF;endArrow=none;endFill=0;strokeColor=#FFFFFF;fillColor=#1DB954;" parent="1" source="sjmsNhyPRY3k_zEpoKR2-401" target="sjmsNhyPRY3k_zEpoKR2-420" edge="1">
          <mxGeometry relative="1" as="geometry" />
        </mxCell>
        <mxCell id="sjmsNhyPRY3k_zEpoKR2-439" style="edgeStyle=orthogonalEdgeStyle;rounded=0;orthogonalLoop=1;jettySize=auto;html=1;exitX=0.5;exitY=1;exitDx=0;exitDy=0;entryX=0;entryY=0.5;entryDx=0;entryDy=0;fontSize=16;fontColor=#FFFFFF;endArrow=none;endFill=0;strokeColor=#FFFFFF;fillColor=#1DB954;" parent="1" source="sjmsNhyPRY3k_zEpoKR2-401" target="sjmsNhyPRY3k_zEpoKR2-438" edge="1">
          <mxGeometry relative="1" as="geometry" />
        </mxCell>
        <mxCell id="sjmsNhyPRY3k_zEpoKR2-401" value="&lt;font color=&quot;#ffffff&quot; style=&quot;font-size: 16px&quot;&gt;User&lt;/font&gt;" style="rounded=0;whiteSpace=wrap;html=1;shadow=0;strokeColor=#FFFFFF;fillColor=#1DB954;gradientColor=none;" parent="1" vertex="1">
          <mxGeometry x="909" y="697" width="120" height="60" as="geometry" />
        </mxCell>
        <mxCell id="sjmsNhyPRY3k_zEpoKR2-406" value="(0,n)" style="text;html=1;align=center;verticalAlign=middle;resizable=0;points=[];autosize=1;strokeColor=none;fillColor=none;fontSize=16;fontColor=#FFFFFF;" parent="1" vertex="1">
          <mxGeometry x="-342" y="606" width="43" height="23" as="geometry" />
        </mxCell>
        <mxCell id="sjmsNhyPRY3k_zEpoKR2-407" value="(0,n)" style="text;html=1;align=center;verticalAlign=middle;resizable=0;points=[];autosize=1;strokeColor=none;fillColor=none;fontSize=16;fontColor=#FFFFFF;" parent="1" vertex="1">
          <mxGeometry x="-166" y="606" width="43" height="23" as="geometry" />
        </mxCell>
        <mxCell id="sjmsNhyPRY3k_zEpoKR2-408" value="(0,n)" style="text;html=1;align=center;verticalAlign=middle;resizable=0;points=[];autosize=1;strokeColor=none;fillColor=none;fontSize=16;fontColor=#FFFFFF;" parent="1" vertex="1">
          <mxGeometry x="13" y="619" width="43" height="23" as="geometry" />
        </mxCell>
        <mxCell id="sjmsNhyPRY3k_zEpoKR2-415" style="edgeStyle=orthogonalEdgeStyle;rounded=0;orthogonalLoop=1;jettySize=auto;html=1;exitX=1;exitY=0.5;exitDx=0;exitDy=0;fontSize=16;fontColor=#FFFFFF;endArrow=none;endFill=0;strokeColor=#FFFFFF;fillColor=#1DB954;" parent="1" source="sjmsNhyPRY3k_zEpoKR2-409" edge="1">
          <mxGeometry relative="1" as="geometry">
            <mxPoint x="1474.5294979319856" y="320.8235724954045" as="targetPoint" />
          </mxGeometry>
        </mxCell>
        <mxCell id="sjmsNhyPRY3k_zEpoKR2-409" value="FollowsArtist" style="rhombus;whiteSpace=wrap;html=1;shadow=0;fontSize=16;fontColor=#FFFFFF;strokeColor=#FFFFFF;fillColor=#1DB954;gradientColor=none;" parent="1" vertex="1">
          <mxGeometry x="1282.75" y="687" width="139.25" height="80" as="geometry" />
        </mxCell>
        <mxCell id="sjmsNhyPRY3k_zEpoKR2-416" value="(0,n)" style="text;html=1;align=center;verticalAlign=middle;resizable=0;points=[];autosize=1;strokeColor=none;fillColor=none;fontSize=16;fontColor=#FFFFFF;" parent="1" vertex="1">
          <mxGeometry x="1239.75" y="703" width="43" height="23" as="geometry" />
        </mxCell>
        <mxCell id="sjmsNhyPRY3k_zEpoKR2-417" value="(0,n)" style="text;html=1;align=center;verticalAlign=middle;resizable=0;points=[];autosize=1;strokeColor=none;fillColor=none;fontSize=16;fontColor=#FFFFFF;" parent="1" vertex="1">
          <mxGeometry x="1415.75" y="703" width="43" height="23" as="geometry" />
        </mxCell>
        <mxCell id="sjmsNhyPRY3k_zEpoKR2-427" style="edgeStyle=orthogonalEdgeStyle;rounded=0;orthogonalLoop=1;jettySize=auto;html=1;exitX=0.5;exitY=0;exitDx=0;exitDy=0;fontSize=16;fontColor=#FFFFFF;endArrow=none;endFill=0;strokeColor=#FFFFFF;fillColor=#1DB954;" parent="1" source="sjmsNhyPRY3k_zEpoKR2-419" edge="1">
          <mxGeometry relative="1" as="geometry">
            <mxPoint x="969.6666937934028" y="399.6666531032986" as="targetPoint" />
          </mxGeometry>
        </mxCell>
        <mxCell id="sjmsNhyPRY3k_zEpoKR2-433" style="edgeStyle=orthogonalEdgeStyle;rounded=0;orthogonalLoop=1;jettySize=auto;html=1;exitX=0.5;exitY=1;exitDx=0;exitDy=0;entryX=0.5;entryY=0;entryDx=0;entryDy=0;fontSize=16;fontColor=#FFFFFF;endArrow=none;endFill=0;strokeColor=#FFFFFF;fillColor=#1DB954;" parent="1" source="sjmsNhyPRY3k_zEpoKR2-419" target="sjmsNhyPRY3k_zEpoKR2-401" edge="1">
          <mxGeometry relative="1" as="geometry" />
        </mxCell>
        <mxCell id="sjmsNhyPRY3k_zEpoKR2-419" value="NumberOfReproductons" style="rhombus;whiteSpace=wrap;html=1;shadow=0;fontSize=16;fontColor=#FFFFFF;strokeColor=#FFFFFF;fillColor=#1DB954;gradientColor=none;" parent="1" vertex="1">
          <mxGeometry x="622" y="509" width="221.75" height="84" as="geometry" />
        </mxCell>
        <mxCell id="sjmsNhyPRY3k_zEpoKR2-426" style="edgeStyle=orthogonalEdgeStyle;rounded=0;orthogonalLoop=1;jettySize=auto;html=1;exitX=0.5;exitY=0;exitDx=0;exitDy=0;fontSize=16;fontColor=#FFFFFF;endArrow=none;endFill=0;strokeColor=#FFFFFF;fillColor=#1DB954;" parent="1" source="sjmsNhyPRY3k_zEpoKR2-420" edge="1">
          <mxGeometry relative="1" as="geometry">
            <mxPoint x="969.2222222222222" y="399.6666531032986" as="targetPoint" />
          </mxGeometry>
        </mxCell>
        <mxCell id="sjmsNhyPRY3k_zEpoKR2-420" value="NowListeningTo" style="rhombus;whiteSpace=wrap;html=1;shadow=0;fontSize=16;fontColor=#FFFFFF;strokeColor=#FFFFFF;fillColor=#1DB954;gradientColor=none;" parent="1" vertex="1">
          <mxGeometry x="869.38" y="509" width="199.25" height="80" as="geometry" />
        </mxCell>
        <mxCell id="sjmsNhyPRY3k_zEpoKR2-428" style="edgeStyle=orthogonalEdgeStyle;rounded=0;orthogonalLoop=1;jettySize=auto;html=1;exitX=0.5;exitY=0;exitDx=0;exitDy=0;fontSize=16;fontColor=#FFFFFF;endArrow=none;endFill=0;strokeColor=#FFFFFF;fillColor=#1DB954;" parent="1" source="sjmsNhyPRY3k_zEpoKR2-424" edge="1">
          <mxGeometry relative="1" as="geometry">
            <mxPoint x="969.6666937934028" y="399.6666531032986" as="targetPoint" />
          </mxGeometry>
        </mxCell>
        <mxCell id="sjmsNhyPRY3k_zEpoKR2-434" style="edgeStyle=orthogonalEdgeStyle;rounded=0;orthogonalLoop=1;jettySize=auto;html=1;exitX=0.5;exitY=1;exitDx=0;exitDy=0;entryX=0.5;entryY=0;entryDx=0;entryDy=0;fontSize=16;fontColor=#FFFFFF;endArrow=none;endFill=0;strokeColor=#FFFFFF;fillColor=#1DB954;" parent="1" source="sjmsNhyPRY3k_zEpoKR2-424" target="sjmsNhyPRY3k_zEpoKR2-401" edge="1">
          <mxGeometry relative="1" as="geometry" />
        </mxCell>
        <mxCell id="sjmsNhyPRY3k_zEpoKR2-424" value="LikesTrack" style="rhombus;whiteSpace=wrap;html=1;shadow=0;fontSize=16;fontColor=#FFFFFF;strokeColor=#FFFFFF;fillColor=#1DB954;gradientColor=none;" parent="1" vertex="1">
          <mxGeometry x="1097.13" y="509" width="199.25" height="80" as="geometry" />
        </mxCell>
        <mxCell id="sjmsNhyPRY3k_zEpoKR2-429" value="(0,n)" style="text;html=1;align=center;verticalAlign=middle;resizable=0;points=[];autosize=1;strokeColor=none;fillColor=none;fontSize=16;fontColor=#FFFFFF;" parent="1" vertex="1">
          <mxGeometry x="685" y="486" width="43" height="23" as="geometry" />
        </mxCell>
        <mxCell id="sjmsNhyPRY3k_zEpoKR2-430" value="(0,n)" style="text;html=1;align=center;verticalAlign=middle;resizable=0;points=[];autosize=1;strokeColor=none;fillColor=none;fontSize=16;fontColor=#FFFFFF;" parent="1" vertex="1">
          <mxGeometry x="925.25" y="486" width="43" height="23" as="geometry" />
        </mxCell>
        <mxCell id="sjmsNhyPRY3k_zEpoKR2-431" value="(0,n)" style="text;html=1;align=center;verticalAlign=middle;resizable=0;points=[];autosize=1;strokeColor=none;fillColor=none;fontSize=16;fontColor=#FFFFFF;" parent="1" vertex="1">
          <mxGeometry x="1157.75" y="486" width="43" height="23" as="geometry" />
        </mxCell>
        <mxCell id="sjmsNhyPRY3k_zEpoKR2-435" value="(0,n)" style="text;html=1;align=center;verticalAlign=middle;resizable=0;points=[];autosize=1;strokeColor=none;fillColor=none;fontSize=16;fontColor=#FFFFFF;" parent="1" vertex="1">
          <mxGeometry x="687" y="592" width="43" height="23" as="geometry" />
        </mxCell>
        <mxCell id="sjmsNhyPRY3k_zEpoKR2-436" value="(0,1)" style="text;html=1;align=center;verticalAlign=middle;resizable=0;points=[];autosize=1;strokeColor=none;fillColor=none;fontSize=16;fontColor=#FFFFFF;" parent="1" vertex="1">
          <mxGeometry x="925.25" y="589" width="43" height="23" as="geometry" />
        </mxCell>
        <mxCell id="sjmsNhyPRY3k_zEpoKR2-437" value="(0,n" style="text;html=1;align=center;verticalAlign=middle;resizable=0;points=[];autosize=1;strokeColor=none;fillColor=none;fontSize=16;fontColor=#FFFFFF;" parent="1" vertex="1">
          <mxGeometry x="1160.75" y="589" width="37" height="23" as="geometry" />
        </mxCell>
        <mxCell id="sjmsNhyPRY3k_zEpoKR2-440" style="edgeStyle=orthogonalEdgeStyle;rounded=0;orthogonalLoop=1;jettySize=auto;html=1;exitX=1;exitY=0.5;exitDx=0;exitDy=0;entryX=1;entryY=0.5;entryDx=0;entryDy=0;fontSize=16;fontColor=#FFFFFF;endArrow=none;endFill=0;strokeColor=#FFFFFF;fillColor=#1DB954;" parent="1" source="sjmsNhyPRY3k_zEpoKR2-438" target="sjmsNhyPRY3k_zEpoKR2-401" edge="1">
          <mxGeometry relative="1" as="geometry" />
        </mxCell>
        <mxCell id="sjmsNhyPRY3k_zEpoKR2-438" value="FollowsUser" style="rhombus;whiteSpace=wrap;html=1;shadow=0;fontSize=16;fontColor=#FFFFFF;strokeColor=#FFFFFF;fillColor=#1DB954;gradientColor=none;" parent="1" vertex="1">
          <mxGeometry x="995" y="795" width="199.25" height="80" as="geometry" />
        </mxCell>
        <mxCell id="sjmsNhyPRY3k_zEpoKR2-441" value="(0,n)" style="text;html=1;align=center;verticalAlign=middle;resizable=0;points=[];autosize=1;strokeColor=none;fillColor=none;fontSize=16;fontColor=#FFFFFF;" parent="1" vertex="1">
          <mxGeometry x="961" y="846.5" width="43" height="23" as="geometry" />
        </mxCell>
        <mxCell id="sjmsNhyPRY3k_zEpoKR2-442" value="(0,n)" style="text;html=1;align=center;verticalAlign=middle;resizable=0;points=[];autosize=1;strokeColor=none;fillColor=none;fontSize=16;fontColor=#FFFFFF;" parent="1" vertex="1">
          <mxGeometry x="1175.25" y="852" width="43" height="23" as="geometry" />
        </mxCell>
      </root>
    </mxGraphModel>
  </diagram>
</mxfile>
